<svg width="51" height="39" viewBox="0 0 51 39" fill="none" xmlns="http://www.w3.org/2000/svg">
<path d="M46.2793 0.890015C48.8184 0.890015 50.9668 3.03845 50.9668 5.57751V33.7025C50.9668 36.3392 48.8184 38.39 46.2793 38.39H5.6543C3.01758 38.39 0.966797 36.3392 0.966797 33.7025V5.57751C0.966797 3.03845 3.01758 0.890015 5.6543 0.890015H46.2793ZM46.2793 5.57751H5.6543V9.58142C7.80273 11.4369 11.3184 14.1713 18.7402 20.0306C20.4004 21.3002 23.623 24.4252 25.9668 24.3275C28.2129 24.4252 31.4355 21.3002 33.0957 20.0306C40.5176 14.1713 44.0332 11.4369 46.2793 9.58142V5.57751ZM5.6543 33.7025H46.2793V15.6361C44.0332 17.3939 40.8105 19.933 36.0254 23.7416C33.7793 25.4017 30.0684 29.1127 25.9668 29.015C21.7676 29.1127 17.959 25.4017 15.8105 23.7416C11.0254 19.933 7.80273 17.3939 5.6543 15.6361V33.7025Z" fill="white"/>
</svg>
