<svg width="41" height="25" viewBox="0 0 41 25" fill="none" xmlns="http://www.w3.org/2000/svg">
<path d="M32.48 8.76245C36.9175 8.76245 40.5425 12.45 40.4175 16.825C40.355 21.2625 36.7925 24.7625 32.355 24.7C28.0425 24.7 24.48 21.075 24.48 16.7625C24.4175 14.3875 25.4175 12.325 27.0425 10.825L26.105 9.32495L20.73 18.0125C20.48 18.45 19.98 18.7 19.48 18.7H16.1675C15.2925 22.2 12.1675 24.7 8.47998 24.7C4.04248 24.7 0.41748 21.1375 0.47998 16.7C0.47998 12.325 4.10498 8.69995 8.47998 8.69995C9.41748 8.76245 10.2925 8.88745 11.1675 9.19995L12.98 6.19995H9.97998C9.10498 6.19995 8.47998 5.57495 8.47998 4.76245C8.41748 3.88745 9.16748 3.19995 9.97998 3.19995H15.48C15.98 3.19995 16.48 3.69995 16.48 4.19995V5.19995H23.5425L22.605 3.69995H19.48C18.9175 3.69995 18.48 3.26245 18.48 2.69995V1.69995C18.48 1.19995 18.9175 0.699951 19.48 0.699951H23.48C23.98 0.699951 24.48 1.01245 24.73 1.44995L29.605 9.26245C30.48 8.88745 31.48 8.69995 32.48 8.76245ZM12.105 13.325L10.6675 15.7H13.355C13.1675 14.825 12.73 14.0125 12.105 13.325ZM8.47998 21.7C10.48 21.7 12.23 20.5125 13.0425 18.7H7.97998C6.79248 18.7 6.04248 17.45 6.66748 16.45L9.54248 11.825C9.16748 11.7625 8.79248 11.7 8.47998 11.7C5.66748 11.7 3.47998 13.95 3.47998 16.7C3.47998 19.5125 5.66748 21.7 8.47998 21.7ZM18.605 15.7L23.23 8.19995H15.2925L13.73 10.7C15.1675 12.0125 16.1675 13.7625 16.4175 15.7H18.605ZM32.1675 21.7C35.0425 21.8875 37.48 19.575 37.48 16.7625C37.48 13.95 35.23 11.7625 32.48 11.7625C32.4175 11.7625 32.48 11.7625 32.4175 11.7625C32.0425 11.7625 31.605 11.7625 31.23 11.8875L33.98 16.3875C34.2925 16.825 34.105 17.45 33.6675 17.7625L32.7925 18.2625C32.355 18.575 31.73 18.3875 31.4175 17.95L28.6675 13.45C27.855 14.3875 27.4175 15.6375 27.48 16.95C27.5425 19.5125 29.605 21.575 32.1675 21.7Z" fill="#D6DEE8"/>
</svg>
