<svg width="51" height="51" viewBox="0 0 51 51" fill="none" xmlns="http://www.w3.org/2000/svg">
<path d="M49.1279 3.08142C50.2021 3.37439 50.9834 4.2533 50.9834 5.32751C50.9834 30.4252 30.6709 50.64 5.6709 50.64C4.49902 50.64 3.62012 49.9564 3.32715 48.8822L0.983398 38.726C0.788086 37.6517 1.27637 36.4799 2.35059 35.9916L13.2881 31.3041C14.2646 30.9135 15.3389 31.2064 16.0225 31.9877L20.9053 37.9447C28.5225 34.3314 34.6748 28.0814 38.1904 20.6595L32.2334 15.7767C31.4521 15.0931 31.1592 14.0189 31.5498 13.0424L36.2373 2.10486C36.7256 1.03064 37.8975 0.444702 38.9717 0.737671L49.1279 3.08142Z" fill="white"/>
</svg>
