<svg width="15" height="15" viewBox="0 0 15 15" fill="none" xmlns="http://www.w3.org/2000/svg">
<path d="M13.5308 4.40625C13.5308 4.54297 13.5308 4.65234 13.5308 4.78906C13.5308 8.58984 10.6597 12.9375 5.38232 12.9375C3.7417 12.9375 2.23779 12.4727 0.97998 11.6523C1.19873 11.6797 1.41748 11.707 1.66357 11.707C3.00342 11.707 4.23389 11.2422 5.21826 10.4766C3.96045 10.4492 2.89404 9.62891 2.53857 8.48047C2.72998 8.50781 2.89404 8.53516 3.08545 8.53516C3.33154 8.53516 3.60498 8.48047 3.82373 8.42578C2.51123 8.15234 1.52686 7.00391 1.52686 5.60938V5.58203C1.90967 5.80078 2.37451 5.91016 2.83936 5.9375C2.04639 5.41797 1.5542 4.54297 1.5542 3.55859C1.5542 3.01172 1.69092 2.51953 1.93701 2.10938C3.35889 3.83203 5.4917 4.98047 7.87061 5.11719C7.81592 4.89844 7.78857 4.67969 7.78857 4.46094C7.78857 2.875 9.07373 1.58984 10.6597 1.58984C11.48 1.58984 12.2183 1.91797 12.7651 2.49219C13.394 2.35547 14.0229 2.10938 14.5698 1.78125C14.3511 2.46484 13.9136 3.01172 13.312 3.36719C13.8862 3.3125 14.4604 3.14844 14.9526 2.92969C14.5698 3.50391 14.0776 3.99609 13.5308 4.40625Z" fill="#B2B2B9"/>
</svg>
