<svg width="15" height="15" viewBox="0 0 15 15" fill="none" xmlns="http://www.w3.org/2000/svg">
<path d="M7.98499 4.10547C9.70764 4.10547 11.1295 5.52734 11.1295 7.25C11.1295 9 9.70764 10.3945 7.98499 10.3945C6.23499 10.3945 4.84045 9 4.84045 7.25C4.84045 5.52734 6.23499 4.10547 7.98499 4.10547ZM7.98499 9.30078C9.10608 9.30078 10.0084 8.39844 10.0084 7.25C10.0084 6.12891 9.10608 5.22656 7.98499 5.22656C6.83655 5.22656 5.9342 6.12891 5.9342 7.25C5.9342 8.39844 6.86389 9.30078 7.98499 9.30078ZM11.9772 3.99609C11.9772 4.40625 11.649 4.73438 11.2389 4.73438C10.8287 4.73438 10.5006 4.40625 10.5006 3.99609C10.5006 3.58594 10.8287 3.25781 11.2389 3.25781C11.649 3.25781 11.9772 3.58594 11.9772 3.99609ZM14.0553 4.73438C14.11 5.74609 14.11 8.78125 14.0553 9.79297C14.0006 10.7773 13.7819 11.625 13.0709 12.3633C12.36 13.0742 11.485 13.293 10.5006 13.3477C9.48889 13.4023 6.45374 13.4023 5.44202 13.3477C4.45764 13.293 3.60999 13.0742 2.8717 12.3633C2.16077 11.625 1.94202 10.7773 1.88733 9.79297C1.83264 8.78125 1.83264 5.74609 1.88733 4.73438C1.94202 3.75 2.16077 2.875 2.8717 2.16406C3.60999 1.45312 4.45764 1.23438 5.44202 1.17969C6.45374 1.125 9.48889 1.125 10.5006 1.17969C11.485 1.23438 12.36 1.45312 13.0709 2.16406C13.7819 2.875 14.0006 3.75 14.0553 4.73438ZM12.7428 10.8594C13.0709 10.0664 12.9889 8.15234 12.9889 7.25C12.9889 6.375 13.0709 4.46094 12.7428 3.64062C12.524 3.12109 12.1139 2.68359 11.5944 2.49219C10.774 2.16406 8.85999 2.24609 7.98499 2.24609C7.08264 2.24609 5.16858 2.16406 4.37561 2.49219C3.82874 2.71094 3.41858 3.12109 3.19983 3.64062C2.8717 4.46094 2.95374 6.375 2.95374 7.25C2.95374 8.15234 2.8717 10.0664 3.19983 10.8594C3.41858 11.4062 3.82874 11.8164 4.37561 12.0352C5.16858 12.3633 7.08264 12.2812 7.98499 12.2812C8.85999 12.2812 10.774 12.3633 11.5944 12.0352C12.1139 11.8164 12.5514 11.4062 12.7428 10.8594Z" fill="#B2B2B9"/>
</svg>
