<svg width="38" height="37" viewBox="0 0 38 37" fill="none" xmlns="http://www.w3.org/2000/svg">
<path d="M35.07 19.66C35.07 10.71 27.87 3.41003 19 3.41003C10.14 3.41003 2.93 10.71 2.93 19.66C2.93 24.5 5.03 28.86 8.35 31.83L6.3 35.27C5.98 35.77 6.14 36.44 6.64 36.75C6.82 36.85 7.01 36.91 7.2 36.91C7.56 36.91 7.9 36.73 8.1 36.39L10.05 33.16C12.6 34.91 15.7 35.91 19 35.91C22.3 35.91 25.4 34.91 27.95 33.16L29.89 36.39C30.09 36.73 30.43 36.91 30.79 36.91C30.99 36.91 31.17 36.86 31.35 36.75C31.85 36.45 32.01 35.78 31.7 35.27L29.65 31.83C32.97 28.85 35.07 24.5 35.07 19.66ZM19 33.76C11.3 33.76 5.06 27.44 5.06 19.66C5.06 11.89 11.31 5.56003 19 5.56003C26.7 5.56003 32.94 11.89 32.94 19.66C32.94 27.44 26.69 33.76 19 33.76ZM26.02 20.71L21.96 19.37C21.81 17.85 20.54 16.67 19 16.67C18.83 16.67 18.67 16.67 18.5 16.7L15.08 11.73C14.74 11.23 14.08 11.13 13.58 11.47C13.11 11.81 12.98 12.47 13.33 12.97L16.67 17.79C16.27 18.29 16.03 18.94 16.03 19.64C16.03 21.3 17.36 22.64 19 22.64C19.98 22.64 20.84 22.17 21.4 21.44L25.36 22.74C25.46 22.78 25.58 22.8 25.69 22.8C26.13 22.8 26.55 22.52 26.69 22.06C26.89 21.5 26.57 20.89 26.01 20.7L26.02 20.71ZM19 20.51C18.54 20.51 18.16 20.13 18.16 19.66C18.16 19.2 18.54 18.82 19 18.82C19.46 18.82 19.84 19.22 19.84 19.67C19.84 20.14 19.46 20.52 19 20.52V20.51ZM10.6 4.28003C10.8 4.08003 10.92 3.80003 10.92 3.52003C10.92 3.24003 10.82 2.96003 10.62 2.76003C9.43 1.55003 7.87 0.910034 6.2 0.910034C4.54 0.910034 2.98 1.56003 1.8 2.75003C-0.629999 5.20003 -0.629999 9.19003 1.8 11.65C2 11.85 2.28 11.95 2.55 11.95C2.83 11.95 3.1 11.85 3.31 11.65L10.59 4.28003H10.6ZM3.33 4.28003C4.1 3.50003 5.13 3.08003 6.21 3.08003C6.95 3.08003 7.65 3.26003 8.26 3.62003L2.67 9.27003C1.77 7.69003 2 5.63003 3.33 4.29003V4.28003ZM36.18 2.75003C35 1.55003 33.45 0.910034 31.78 0.910034C30.12 0.910034 28.56 1.56003 27.38 2.75003C27.18 2.95003 27.08 3.23003 27.08 3.52003C27.08 3.82003 27.18 4.09003 27.38 4.29003L34.68 11.66C34.88 11.86 35.15 11.96 35.43 11.96C35.7 11.96 35.97 11.86 36.18 11.66C38.61 9.20003 38.61 5.21003 36.18 2.76003V2.75003ZM35.33 9.25003L29.75 3.62003C30.35 3.27003 31.05 3.08003 31.79 3.08003C32.87 3.08003 33.89 3.51003 34.66 4.28003C35.99 5.63003 36.21 7.68003 35.32 9.28003L35.33 9.25003Z" fill="#D6DEE8"/>
</svg>
