<svg width="38" height="52" viewBox="0 0 38 52" fill="none" xmlns="http://www.w3.org/2000/svg">
<path d="M17.0469 49.6635C2.78906 29.1556 0.25 27.0072 0.25 19.39C0.25 9.03845 8.55078 0.640015 19 0.640015C29.3516 0.640015 37.75 9.03845 37.75 19.39C37.75 27.0072 35.1133 29.1556 20.8555 49.6635C19.9766 51.0306 17.9258 51.0306 17.0469 49.6635ZM19 27.2025C23.2969 27.2025 26.8125 23.7845 26.8125 19.39C26.8125 15.0931 23.2969 11.5775 19 11.5775C14.6055 11.5775 11.1875 15.0931 11.1875 19.39C11.1875 23.7845 14.6055 27.2025 19 27.2025Z" fill="white"/>
</svg>
