<svg width="37" height="37" viewBox="0 0 37 37" fill="none" xmlns="http://www.w3.org/2000/svg">
<path d="M33.25 7.94001C30.32 4.14001 26.08 1.69001 21.31 1.06001C16.59 0.46001 11.91 1.69001 8.11002 4.56001L6.76002 3.18001C6.36002 2.78001 6.01002 2.92001 5.96002 3.48001L5.51002 8.38001C5.46002 8.94001 5.87002 9.35001 6.41002 9.30001L11.34 8.85001C11.89 8.80001 12.02 8.43001 11.64 8.05001L10.18 6.61001C13.3 4.37001 17.08 3.41001 20.92 3.91001C24.92 4.44001 28.48 6.49001 30.92 9.69001C33.39 12.89 34.46 16.85 33.92 20.85C33.56 23.69 32.42 26.31 30.64 28.47C29.92 29.35 29.09 30.15 28.16 30.87C24.96 33.32 21 34.39 17 33.87C13 33.34 9.44002 31.29 6.98002 28.09C4.58002 24.99 3.51002 21.11 3.95002 17.21C4.03002 16.41 3.45002 15.71 2.65002 15.61C1.91002 15.53 1.18002 16.11 1.08002 16.91C0.580017 21.56 1.86002 26.16 4.71002 29.88C7.64002 33.68 11.88 36.13 16.64 36.76C21.41 37.38 26.14 36.11 29.94 33.18C31.04 32.33 32.04 31.38 32.9 30.32C35.02 27.76 36.38 24.64 36.82 21.26C37.45 16.49 36.18 11.76 33.25 7.96001V7.94001ZM18.28 7.21001C17.63 7.21001 17.1 7.71001 17.1 8.37001V20.04L27.78 25.56C27.95 25.66 28.14 25.69 28.32 25.69C28.74 25.69 29.15 25.46 29.36 25.06C29.66 24.48 29.43 23.78 28.86 23.48L19.46 18.61V8.37001C19.46 7.72001 18.92 7.20001 18.26 7.20001L18.28 7.21001Z" fill="#D6DEE8"/>
</svg>
