<svg width="33" height="29" viewBox="0 0 33 29" fill="none" xmlns="http://www.w3.org/2000/svg">
<path d="M9.97998 11.0901C11.0425 11.0901 11.98 12.0276 11.98 13.0901C11.98 14.2151 11.0425 15.0901 9.97998 15.0901C8.85498 15.0901 7.97998 14.2151 7.97998 13.0901C7.97998 12.0276 8.85498 11.0901 9.97998 11.0901ZM16.98 11.0901C18.0425 11.0901 18.98 12.0276 18.98 13.0901C18.98 14.2151 18.0425 15.0901 16.98 15.0901C15.855 15.0901 14.98 14.2151 14.98 13.0901C14.98 12.0276 15.855 11.0901 16.98 11.0901ZM23.98 11.0901C25.0425 11.0901 25.98 12.0276 25.98 13.0901C25.98 14.2151 25.0425 15.0901 23.98 15.0901C22.855 15.0901 21.98 14.2151 21.98 13.0901C21.98 12.0276 22.855 11.0901 23.98 11.0901ZM16.98 0.0900879C25.7925 0.0900879 32.98 5.96509 32.98 13.0901C32.98 20.2776 25.7925 26.0901 16.98 26.0901C14.9175 26.0901 12.98 25.7776 11.1675 25.2151C9.35498 26.5276 6.29248 28.0901 2.47998 28.0901C1.85498 28.0901 1.29248 27.7776 1.04248 27.2151C0.85498 26.6526 0.91748 26.0276 1.35498 25.5901C1.41748 25.5901 3.35498 23.4651 4.22998 21.0276C2.16748 18.8401 0.97998 16.0901 0.97998 13.0901C0.97998 5.96509 8.10498 0.0900879 16.98 0.0900879ZM16.98 23.0901C24.105 23.0901 29.98 18.6526 29.98 13.0901C29.98 7.59009 24.105 3.09009 16.98 3.09009C9.79248 3.09009 3.97998 7.59009 3.97998 13.0901C3.97998 15.7776 5.29248 17.7776 6.41748 18.9651L7.72998 20.3401L7.04248 22.0901C6.72998 22.9651 6.29248 23.8401 5.79248 24.5901C7.29248 24.0901 8.54248 23.4026 9.41748 22.7776L10.605 21.9026L12.0425 22.3401C13.605 22.8401 15.2925 23.0901 16.98 23.0901Z" fill="#D6DEE8"/>
</svg>
