<svg width="26" height="37" viewBox="0 0 26 37" fill="none" xmlns="http://www.w3.org/2000/svg">
<path d="M24.82 33.67H22.82V29.87C22.82 26.04 20.8 22.51 17.16 19.94C16.71 19.62 16.42 18.94 16.42 18.14C16.42 17.34 16.72 16.66 17.16 16.34C20.8 13.77 22.81 10.24 22.81 6.40001V2.60001H24.83C25.48 2.60001 26.01 2.06001 26.01 1.38001C26 0.680015 25.47 0.140015 24.82 0.140015H1.18C0.529998 0.140015 -2.13645e-06 0.690015 -2.13645e-06 1.38001C-2.13645e-06 2.06001 0.529998 2.61001 1.18 2.61001H3.18V6.41001C3.18 10.24 5.2 13.77 8.84 16.34C9.29 16.66 9.58 17.34 9.58 18.14C9.58 18.94 9.28 19.62 8.84 19.94C5.2 22.51 3.2 26.04 3.2 29.88V33.68H1.17C0.519998 33.68 -0.0100021 34.22 -0.0100021 34.9C-2.13645e-06 35.6 0.529998 36.14 1.18 36.14H24.82C25.47 36.14 26 35.59 26 34.9C26 34.22 25.47 33.67 24.82 33.67ZM5.54 29.87C5.54 25.84 8.44 23.2 10.14 21.99C11.26 21.21 11.94 19.77 11.94 18.14C11.94 16.51 11.26 15.07 10.14 14.29C8.44 13.09 5.54 10.44 5.54 6.39001V2.62001H20.46V6.42001C20.46 10.45 17.56 13.09 15.86 14.3C14.74 15.08 14.06 16.52 14.06 18.15C14.06 19.78 14.74 21.22 15.86 22C17.56 23.2 20.46 25.85 20.46 29.9V33.68H5.54V29.88V29.87Z" fill="#D6DEE8"/>
</svg>
