<svg width="19" height="19" viewBox="0 0 19 19" fill="none" xmlns="http://www.w3.org/2000/svg">
<path d="M18.7031 9.35498C18.7031 14.439 14.5469 18.5581 9.5 18.5581C4.41602 18.5581 0.296875 14.439 0.296875 9.35498C0.296875 4.30811 4.41602 0.151855 9.5 0.151855C14.5469 0.151855 18.7031 4.30811 18.7031 9.35498ZM8.42383 14.2534L15.252 7.42529C15.4746 7.20264 15.4746 6.79443 15.252 6.57178L14.3984 5.75537C14.1758 5.49561 13.8047 5.49561 13.582 5.75537L8.01562 11.3218L5.38086 8.72412C5.1582 8.46436 4.78711 8.46436 4.56445 8.72412L3.71094 9.54053C3.48828 9.76318 3.48828 10.1714 3.71094 10.394L7.57031 14.2534C7.79297 14.4761 8.20117 14.4761 8.42383 14.2534Z" fill="#1BCB42"/>
</svg>
