<svg width="21" height="21" viewBox="0 0 21 21" fill="none" xmlns="http://www.w3.org/2000/svg">
<path d="M19.6478 1.97656C20.0775 2.09375 20.39 2.44531 20.39 2.875C20.39 12.9141 12.265 21 2.26501 21C1.79626 21 1.4447 20.7266 1.32751 20.2969L0.390015 16.2344C0.31189 15.8047 0.507202 15.3359 0.93689 15.1406L5.31189 13.2656C5.70251 13.1094 6.1322 13.2266 6.40564 13.5391L8.35876 15.9219C11.4056 14.4766 13.8666 11.9766 15.2728 9.00781L12.89 7.05469C12.5775 6.78125 12.4603 6.35156 12.6166 5.96094L14.4916 1.58594C14.6869 1.15625 15.1556 0.921875 15.5853 1.03906L19.6478 1.97656Z" fill="#B2B2B9"/>
</svg>
