<svg width="38" height="35" viewBox="0 0 38 35" fill="none" xmlns="http://www.w3.org/2000/svg">
<path d="M2.28001 34.14H36.68C37.41 34.14 37.98 33.57 37.98 32.84V3.84001C37.98 3.12001 37.41 2.54001 36.68 2.54001H30.18V1.44001C30.18 0.710015 29.61 0.140015 28.88 0.140015C28.14 0.140015 27.58 0.710015 27.58 1.44001V2.54001H11.58V1.44001C11.58 0.710015 11 0.140015 10.28 0.140015C9.54001 0.140015 8.98001 0.710015 8.98001 1.44001V2.54001H2.28001C1.56001 2.54001 0.980011 3.14001 0.980011 3.84001V32.87C0.980011 33.57 1.58001 34.14 2.28001 34.14ZM3.58001 5.14001H8.98001V5.84001C8.98001 6.57001 9.55001 7.14001 10.28 7.14001C11.02 7.14001 11.58 6.57001 11.58 5.84001V5.14001H27.58V5.84001C27.58 6.57001 28.16 7.14001 28.9 7.14001C29.63 7.14001 30.2 6.57001 30.2 5.84001V5.14001H35.4V12.04H3.60001V5.14001H3.58001ZM3.58001 14.64H35.38V31.57H3.58001V14.64ZM19.5 24.41H10.1C9.36001 24.41 8.80001 24.98 8.80001 25.71C8.80001 26.44 9.36001 27.01 10.1 27.01H19.5C20.23 27.01 20.8 26.44 20.8 25.71C20.8 24.98 20.23 24.41 19.5 24.41ZM28.9 19.14H10.1C9.36001 19.14 8.80001 19.71 8.80001 20.44C8.80001 21.17 9.36001 21.74 10.1 21.74H28.9C29.63 21.74 30.2 21.17 30.2 20.44C30.2 19.71 29.63 19.14 28.9 19.14Z" fill="#D6DEE8"/>
</svg>
