<svg width="16" height="15" viewBox="0 0 16 15" fill="none" xmlns="http://www.w3.org/2000/svg">
<path d="M15.1217 3.66797C15.4498 4.81641 15.4498 7.27734 15.4498 7.27734C15.4498 7.27734 15.4498 9.71094 15.1217 10.8867C14.9576 11.543 14.4381 12.0352 13.8092 12.1992C12.6334 12.5 7.98499 12.5 7.98499 12.5C7.98499 12.5 3.3092 12.5 2.13342 12.1992C1.50452 12.0352 0.984985 11.543 0.820923 10.8867C0.492798 9.71094 0.492798 7.27734 0.492798 7.27734C0.492798 7.27734 0.492798 4.81641 0.820923 3.66797C0.984985 3.01172 1.50452 2.49219 2.13342 2.32812C3.3092 2 7.98499 2 7.98499 2C7.98499 2 12.6334 2 13.8092 2.32812C14.4381 2.49219 14.9576 3.01172 15.1217 3.66797ZM6.45374 9.49219L10.3365 7.27734L6.45374 5.0625V9.49219Z" fill="#B2B2B9"/>
</svg>
