<svg width="30" height="33" viewBox="0 0 30 33" fill="none" xmlns="http://www.w3.org/2000/svg">
<path d="M7.97998 14.7C4.10498 14.7 0.97998 11.575 0.97998 7.69995C0.97998 3.88745 4.10498 0.699951 7.97998 0.699951C11.7925 0.699951 14.98 3.88745 14.98 7.69995C14.98 11.575 11.7925 14.7 7.97998 14.7ZM7.97998 4.69995C6.29248 4.69995 4.97998 6.07495 4.97998 7.69995C4.97998 9.38745 6.29248 10.7 7.97998 10.7C9.60498 10.7 10.98 9.38745 10.98 7.69995C10.98 6.07495 9.60498 4.69995 7.97998 4.69995ZM21.98 18.7C25.7925 18.7 28.98 21.8875 28.98 25.7C28.98 29.575 25.7925 32.7 21.98 32.7C18.105 32.7 14.98 29.575 14.98 25.7C14.98 21.8875 18.105 18.7 21.98 18.7ZM21.98 28.7C23.605 28.7 24.98 27.3875 24.98 25.7C24.98 24.075 23.605 22.7 21.98 22.7C20.2925 22.7 18.98 24.075 18.98 25.7C18.98 27.3875 20.2925 28.7 21.98 28.7ZM25.48 0.762451H27.4175C28.6675 0.699951 29.355 2.07495 28.6675 3.07495L5.79248 32.075C5.54248 32.45 5.04248 32.7 4.54248 32.7H2.47998C1.22998 32.7 0.54248 31.325 1.22998 30.3875L24.23 1.38745C24.5425 0.949951 24.98 0.762451 25.48 0.762451Z" fill="#D6DEE8"/>
</svg>
