<svg width="19" height="15" viewBox="0 0 19 15" fill="none" xmlns="http://www.w3.org/2000/svg">
<path d="M18.0975 0.72998H1.22247C1.07013 0.72998 0.938293 0.785645 0.826965 0.896973C0.715637 1.0083 0.659973 1.14014 0.659973 1.29248V13.6675C0.659973 13.8198 0.715637 13.9517 0.826965 14.063C0.938293 14.1743 1.07013 14.23 1.22247 14.23H18.0975C18.2498 14.23 18.3817 14.1743 18.493 14.063C18.6043 13.9517 18.66 13.8198 18.66 13.6675V1.29248C18.66 1.14014 18.6043 1.0083 18.493 0.896973C18.3817 0.785645 18.2498 0.72998 18.0975 0.72998ZM1.78497 1.85498H17.535V3.771L9.65997 7.98975L1.78497 3.771V1.85498ZM1.78497 13.105V5.03662L9.3963 9.11475C9.43146 9.13818 9.47247 9.15576 9.51935 9.16748C9.56622 9.1792 9.6131 9.18506 9.65997 9.18506C9.70685 9.18506 9.75372 9.1792 9.8006 9.16748C9.84747 9.15576 9.88849 9.13818 9.92365 9.11475L17.535 5.03662V13.105H1.78497Z" fill="white"/>
</svg>
