<svg width="25" height="33" viewBox="0 0 25 33" fill="none" xmlns="http://www.w3.org/2000/svg">
<path d="M11.23 31.4651C2.10498 18.3401 0.47998 16.9651 0.47998 12.0901C0.47998 5.46509 5.79248 0.0900879 12.48 0.0900879C19.105 0.0900879 24.48 5.46509 24.48 12.0901C24.48 16.9651 22.7925 18.3401 13.6675 31.4651C13.105 32.3401 11.7925 32.3401 11.23 31.4651ZM12.48 17.0901C15.23 17.0901 17.48 14.9026 17.48 12.0901C17.48 9.34009 15.23 7.09009 12.48 7.09009C9.66748 7.09009 7.47998 9.34009 7.47998 12.0901C7.47998 14.9026 9.66748 17.0901 12.48 17.0901Z" fill="#D6DEE8"/>
</svg>
